<?xml version="1.0" standalone="no"?>
<!DOCTYPE svg PUBLIC "-//W3C//DTD SVG 20010904//EN"
 "http://www.w3.org/TR/2001/REC-SVG-20010904/DTD/svg10.dtd">
<svg version="1.0" xmlns="http://www.w3.org/2000/svg"
 width="500.000000pt" height="500.000000pt" viewBox="0 0 500.000000 500.000000"
 preserveAspectRatio="xMidYMid meet">
<metadata>
Created by potrace 1.14, written by Peter Selinger 2001-2017
</metadata>
<g transform="translate(0.000000,500.000000) scale(0.100000,-0.100000)"
fill="#000000" stroke="none">
<path d="M2820 2530 c0 -759 3 -1380 8 -1380 4 -1 127 -2 274 -3 260 -2 267
-1 270 18 2 11 3 255 3 542 0 288 2 517 6 510 4 -6 82 -248 173 -536 91 -288
168 -526 170 -528 3 -3 107 -5 233 -5 361 1 365 1 358 12 -3 5 -105 303 -225
660 l-219 650 18 58 c10 31 60 176 111 322 50 146 118 342 150 435 32 94 62
178 65 188 7 16 -11 17 -283 17 l-290 0 -129 -390 c-70 -214 -130 -390 -133
-390 -3 0 -5 264 -5 588 1 323 -1 593 -3 600 -3 9 -68 12 -278 12 l-274 0 0
-1380z"/>
<path d="M648 3892 l-26 -3 0 -1370 -1 -1369 40 -1 c51 0 402 0 433 0 l25 1 0
961 c0 529 2 963 4 965 2 2 11 -42 20 -99 9 -56 19 -113 21 -127 5 -24 111
-654 122 -715 2 -16 16 -93 29 -170 13 -77 26 -153 29 -170 3 -16 19 -113 36
-215 17 -102 32 -194 34 -205 33 -203 39 -225 63 -226 30 0 381 0 432 0 38 1
38 1 45 49 6 48 11 79 22 142 3 19 8 46 10 60 2 14 7 41 10 60 3 19 7 46 9 60
2 14 24 153 50 310 25 157 47 296 50 310 2 14 7 45 10 70 4 25 9 54 11 65 2
10 6 37 9 60 3 22 8 47 10 55 2 8 7 35 10 60 6 39 47 303 60 383 10 60 15 85
25 152 6 38 13 71 16 74 2 2 4 -426 4 -952 l0 -957 43 -1 c187 -2 450 1 455 6
3 3 6 620 6 1370 l1 1365 -45 0 c-511 5 -800 3 -801 -5 0 -5 -2 -18 -4 -27 -4
-23 -13 -83 -25 -181 -6 -45 -12 -93 -15 -107 -2 -14 -9 -63 -15 -110 -6 -47
-13 -98 -15 -115 -3 -16 -14 -95 -25 -175 -10 -80 -31 -228 -45 -330 -14 -102
-37 -266 -50 -365 -31 -221 -30 -213 -38 -221 -4 -4 -8 8 -8 27 -2 42 -5 76
-18 159 -5 36 -13 88 -17 115 -4 28 -8 59 -9 70 -2 11 -10 74 -19 140 -9 66
-18 131 -20 145 -3 14 -7 43 -10 65 -3 22 -7 56 -10 75 -3 19 -15 105 -26 190
-12 85 -23 166 -25 180 -2 14 -15 111 -29 215 -35 253 -35 255 -49 255 -95 3
-779 4 -799 2z"/>
<path d="M4499 1555 c-58 -30 -116 -96 -130 -149 -6 -23 -9 -68 -6 -102 16
-209 276 -296 424 -142 90 93 86 254 -8 347 -74 73 -191 92 -280 46z"/>
</g>
</svg>
